<?xml version="1.0" encoding="UTF-8" standalone="no"?>
<!-- Created with Inkscape (http://www.inkscape.org/) -->

<svg
   width="210mm"
   height="297mm"
   viewBox="0 0 210 297"
   version="1.1"
   id="svg1"
   xml:space="preserve"
   inkscape:version="1.4.2 (f4327f4, 2025-05-13)"
   sodipodi:docname="drawing.svg"
   xmlns:inkscape="http://www.inkscape.org/namespaces/inkscape"
   xmlns:sodipodi="http://sodipodi.sourceforge.net/DTD/sodipodi-0.dtd"
   xmlns:xlink="http://www.w3.org/1999/xlink"
   xmlns="http://www.w3.org/2000/svg"
   xmlns:svg="http://www.w3.org/2000/svg"><sodipodi:namedview
     id="namedview1"
     pagecolor="#ffffff"
     bordercolor="#000000"
     borderopacity="0.25"
     inkscape:showpageshadow="2"
     inkscape:pageopacity="0.0"
     inkscape:pagecheckerboard="0"
     inkscape:deskcolor="#d1d1d1"
     inkscape:document-units="mm"
     inkscape:zoom="1.0396254"
     inkscape:cx="396.77752"
     inkscape:cy="514.12748"
     inkscape:window-width="2560"
     inkscape:window-height="1369"
     inkscape:window-x="-8"
     inkscape:window-y="-8"
     inkscape:window-maximized="1"
     inkscape:current-layer="g5" /><defs
     id="defs1"><path
       id="SVGID_1_"
       d="M1675.704,738.134c-0.706,2.386-1.29,4.646-1.723,6.765c0.05,1.69,0.113,3.384,0.162,5.073     c0.166,13.755,0.113,27.47-0.057,41.113c0.551,1.984,0.863,3.094,0.863,3.094l-0.928,0.229     c-0.151,10.721-0.342,21.422-0.625,31.994c-0.354,17.556-1.025,35.034-1.309,52.059c8.747,1.604,15.245,5.896,13.008,12.235     c0,0-5.557,3.988-13.096,11.172c-0.111,22.999,1.426,45.231,3.424,66.246c2.308,21.58,5.448,41.901,9.461,60.416     c7.834,37.099,18.303,67.054,27.221,87.208c8.803,20.34,15.676,30.644,15.686,30.655l-5.991,3.964     c0,0-7.571-10.878-16.965-31.331c-9.598-20.416-20.958-50.691-29.791-88.287c-4.517-18.768-8.192-39.378-11.041-61.297     c-2.048-17.295-3.779-35.431-4.604-54.136c-15.703,18.648-32.201,46.721-28.94,80.421     c64.084,662.18-609.069,535.563-690.042,602.225C703.27,1793.182,724.404,1852.468,641.5,1892.021     c-40.835,19.482-93.014,2.435-97.55-48.706c-4.537-51.141,11.343-75.495,11.343-75.495s-70.328,46.271-97.551,51.142     c-27.224,4.871-70.328,2.435-88.476-41.4c-13.927-33.638,16.21-67.25,30.995-81.081c-9.161,3.281-26.423,8.142-58.219,15.327     c-86.207,19.482-171.861-33.619-147.461-77.931c50.96-92.542,211.691,14.612,638.928-238.134     c91.721,23.276,193.975,31.141,255.783-30.118c64.703-64.47,28.101-173.271-66.551-161.507c-3.45,0.427-8.689,0.158-8.292,3.438     c0.386,3.192,5.479,1.924,8.76,1.719c85.295-5.146,112.21,90.488,52.902,142.463c-64.023,55.604-169.51,32.76-250.742,4.151     c-249.36-143.104-215.721-451.699-196.8-629.595c19.956-187.602-23.95-255.463-23.95-255.463s317.33,37.924,433.089,241.494     c123.127,216.532,117.747,331.298,169.891,386.429c32.708,34.586,98.042,14.969,136.212-59.873     c46.027-90.254,38.17-246.23,143.697-260.45c105.527-14.22,157.917,104.031,157.917,104.031     c3.508-2.339,8.185-3.743,13.101-4.348c-0.123-17.056,0.068-34.285-0.102-51.868c-0.025-13.182-0.154-26.445-0.399-39.73     c-0.521-2.375-1.193-4.95-2.275-7.356c-1.725-5.04-3.907-10.983-7.378-17.245c-2.821-6.486-7.425-12.536-11.382-18.982     c-4.827-5.797-9.141-12.147-14.404-16.926c-4.71-5.194-9.748-9.268-14.186-12.691c-8.364,3.9-18.985,1.248-28.924-6.164     c-12.478-9.287-30.867-41.977-28.163-46.321c2.704-4.332,27.581,4.556,45.777,15.647c16.898,10.288,20.524,23.118,18.073,30.284     c4.638,3.243,9.751,7.064,14.606,11.848c5.923,4.877,10.895,11.333,16.411,17.334c3.619,5.208,7.6,10.201,10.844,15.408     c-0.011-0.283-0.013-0.566-0.024-0.848c-1.322-22.917-2.82-45.782-6.099-68.011c-0.854-1.496-1.739-2.993-2.519-4.549     c-1.813-3.665-3.888-7.253-6.846-10.239c-2.792-3.081-5.146-6.572-8.239-9.345c-3.171-2.714-6.292-5.389-9.306-7.977     c-6.506-4.779-12.661-9.094-18.371-12.564c-2.585-1.578-4.951-3.063-7.104-4.436c-9.295,10.625-25.357,11.152-42.037,3.68     c-18.545-8.3-51.274-44.701-49.062-50.993c2.21-6.292,36.43-2.046,62.76,6.913c23.412,7.944,31.949,22.302,31.686,32.131     c2.47,1.425,5.3,3.028,8.516,4.794c5.808,3.161,12.623,7.445,19.729,12.167c3.421,2.677,6.958,5.43,10.546,8.231     c2.13,1.74,4.048,3.796,5.948,5.891c-2.772-14.264-6.235-28.146-10.021-41.684c-2.625-3.037-5.831-6.747-9.499-10.993     c-5.088-5.835-10.936-12.796-17.372-19.969c-6.931-6.456-14.328-13.35-21.715-20.233c-3.742-3.403-7.31-7.039-11.149-10.217     c-4.022-2.957-7.987-5.875-11.827-8.686c-7.792-5.39-14.561-11.507-21.287-14.9c-1.22-0.648-2.359-1.254-3.5-1.861     c-16.098,16.834-42.863,16.801-70.283,3.78c-30.876-14.638-84.583-77.089-80.639-87.569     c3.958-10.498,61.367-2.102,105.319,13.931c45.164,16.455,56.641,46.563,50.706,62.272c0.987,0.473,1.942,0.931,2.981,1.43     c7.27,3.343,14.348,9.228,22.695,14.521c4.082,2.764,8.309,5.613,12.603,8.521c4.12,3.141,7.987,6.749,12.019,10.132     c8.017,6.911,16.026,13.824,23.539,20.298c2.372,2.437,4.543,4.759,6.739,7.092c-5.098-13.668-10.621-26.826-16.512-39.266     c-8.841-19.602-19.137-37.216-28.482-53.58c-10.577-15.626-18.758-30.991-28.046-43.313     c-8.918-12.555-16.296-23.839-23.092-32.632c-1.368-1.859-2.636-3.585-3.88-5.276c-26.679,7.859-62.823-18.456-90.639-58.744     c-40.542-58.728-37.226-121.605-32.525-128.324c4.702-6.718,63.14,40.717,101.664,87.153     c36.752,44.233,39.481,79.824,30.048,93.757c1.319,1.416,2.64,2.834,4.077,4.377c7.89,8.037,16.208,18.865,26.076,31.061     c10.092,12.012,20.175,26.66,31.226,42.557c8.726,14.221,18.172,29.505,26.917,46.257c-0.242-5.619-0.457-11.342-0.179-16.979     c0.522-9.23,1.036-18.468,1.531-27.126c0.149-4.024,0.539-7.848,0.952-11.522c-11.667-3.142-24.977-23.891-17.363-61     c7.455-36.44,24.71-78.612,32.563-76.712c7.822,1.91,24.458,65.059,21.249,92.136c-2.666,22.537-11.972,39.688-26.604,44.64     c-0.292,4.139-0.547,8.502-0.501,13.031c-0.096,8.482-0.194,17.537-0.292,26.59c-0.028,9.026,1.231,17.751,1.707,26.049     c0.32,4.129,0.639,8.124,0.93,11.904c0.796,3.85,1.553,7.495,2.239,10.859c0.407,1.974,0.788,3.815,1.152,5.582     c4.661,11.609,8.973,23.666,12.984,36.076c0.636,2.085,1.184,4.237,1.794,6.343c0.144-0.756,0.281-1.473,0.426-2.233     c0.882-3.878,1.231-8.038,2.579-11.76c2.91-9.617,5.741-19.109,8.612-27.626c-9.441-9.624-15.069-38.976,0.364-71.148     c16.053-33.551,42.345-60.618,49.5-56.868c7.134,3.743,7.967,69.044-1.707,94.53c-8.397,22.171-22.434,36.763-38.703,36.842     c-2.321,8.372-4.536,17.597-6.83,26.887c-1.125,3.723-1.173,7.475-1.813,11.14c-0.504,3.663-1.008,7.261-1.483,10.751     c-1.29,6.814-1.57,13.552-1.377,19.514c-0.013,3.73-0.023,7.005-0.033,9.821c1.715,9.005,3.25,18.086,4.377,27.288     c1.413,9.511,2.322,19.108,3.055,28.732c0.588,1.819,1.047,3.553,1.094,5.111c0.105,0.777,0.201,1.484,0.301,2.23     c2.538-4.911,5.135-9.914,8.239-14.676c0.399-0.683,0.842-1.321,1.249-1.999c-5.322-11.584-3.589-37.181,15.29-61.335     c20.882-26.737,49.567-45.689,55.209-40.949c5.613,4.732-6.398,63.033-20.009,83.838c-11.694,17.909-26.864,28.14-41.251,25.324     c-0.145,0.279-0.31,0.541-0.453,0.821C1684.255,713.482,1678.37,727.945,1675.704,738.134z M1099.749,761.066     c60.703,113.911,70.678,283.551,143.527,293.532c26.768,3.667,32.936-12.472,32.936-12.472s-29.955,7.66-53.893-35.427     c-49.892-89.81-84.816-429.096-193.589-547.843C919.958,340.109,769.275,342.103,769.275,342.103l46.905,130.225     C977.365,555.012,1021.265,613.786,1099.749,761.066z" /></defs><g
     inkscape:label="Layer 1"
     inkscape:groupmode="layer"
     id="layer1"><g
       id="g5"
       transform="matrix(0.10744117,0,0,0.09651825,-3.342238,38.566926)">
	
	<g
   id="g4"
   transform="translate(-42.637072,79.103811)">
		<defs
   id="defs1-0">
			<path
   id="path1"
   d="m 1675.704,738.134 c -0.706,2.386 -1.29,4.646 -1.723,6.765 0.05,1.69 0.113,3.384 0.162,5.073 0.166,13.755 0.113,27.47 -0.057,41.113 0.551,1.984 0.863,3.094 0.863,3.094 l -0.928,0.229 c -0.151,10.721 -0.342,21.422 -0.625,31.994 -0.354,17.556 -1.025,35.034 -1.309,52.059 8.747,1.604 15.245,5.896 13.008,12.235 0,0 -5.557,3.988 -13.096,11.172 -0.111,22.999 1.426,45.231 3.424,66.246 2.308,21.58 5.448,41.901 9.461,60.416 7.834,37.099 18.303,67.054 27.221,87.208 8.803,20.34 15.676,30.644 15.686,30.655 l -5.991,3.964 c 0,0 -7.571,-10.878 -16.965,-31.331 -9.598,-20.416 -20.958,-50.691 -29.791,-88.287 -4.517,-18.768 -8.192,-39.378 -11.041,-61.297 -2.048,-17.295 -3.779,-35.431 -4.604,-54.136 -15.703,18.648 -32.201,46.721 -28.94,80.421 64.084,662.18 -609.069,535.563 -690.042,602.225 -237.147,195.23 -216.013,254.516 -298.917,294.069 -40.835,19.482 -93.014,2.435 -97.55,-48.706 -4.537,-51.141 11.343,-75.495 11.343,-75.495 0,0 -70.328,46.271 -97.551,51.142 -27.224,4.871 -70.328,2.435 -88.476,-41.4 -13.927,-33.638 16.21,-67.25 30.995,-81.081 -9.161,3.281 -26.423,8.142 -58.219,15.327 -86.207,19.482 -171.861,-33.619 -147.461,-77.931 50.96,-92.542 211.691,14.612 638.928,-238.134 91.721,23.276 193.975,31.141 255.783,-30.118 64.703,-64.47 28.101,-173.271 -66.551,-161.507 -3.45,0.427 -8.689,0.158 -8.292,3.438 0.386,3.192 5.479,1.924 8.76,1.719 85.295,-5.146 112.21,90.488 52.902,142.463 -64.023,55.604 -169.51,32.76 -250.742,4.151 -249.36,-143.104 -215.721,-451.699 -196.8,-629.595 19.956,-187.602 -23.95,-255.463 -23.95,-255.463 0,0 317.33,37.924 433.089,241.494 123.127,216.532 117.747,331.298 169.891,386.429 32.708,34.586 98.042,14.969 136.212,-59.873 46.027,-90.254 38.17,-246.23 143.697,-260.45 105.527,-14.22 157.917,104.031 157.917,104.031 3.508,-2.339 8.185,-3.743 13.101,-4.348 -0.123,-17.056 0.068,-34.285 -0.102,-51.868 -0.025,-13.182 -0.154,-26.445 -0.399,-39.73 -0.521,-2.375 -1.193,-4.95 -2.275,-7.356 -1.725,-5.04 -3.907,-10.983 -7.378,-17.245 -2.821,-6.486 -7.425,-12.536 -11.382,-18.982 -4.827,-5.797 -9.141,-12.147 -14.404,-16.926 -4.71,-5.194 -9.748,-9.268 -14.186,-12.691 -8.364,3.9 -18.985,1.248 -28.924,-6.164 -12.478,-9.287 -30.867,-41.977 -28.163,-46.321 2.704,-4.332 27.581,4.556 45.777,15.647 16.898,10.288 20.524,23.118 18.073,30.284 4.638,3.243 9.751,7.064 14.606,11.848 5.923,4.877 10.895,11.333 16.411,17.334 3.619,5.208 7.6,10.201 10.844,15.408 -0.011,-0.283 -0.013,-0.566 -0.024,-0.848 -1.322,-22.917 -2.82,-45.782 -6.099,-68.011 -0.854,-1.496 -1.739,-2.993 -2.519,-4.549 -1.813,-3.665 -3.888,-7.253 -6.846,-10.239 -2.792,-3.081 -5.146,-6.572 -8.239,-9.345 -3.171,-2.714 -6.292,-5.389 -9.306,-7.977 -6.506,-4.779 -12.661,-9.094 -18.371,-12.564 -2.585,-1.578 -4.951,-3.063 -7.104,-4.436 -9.295,10.625 -25.357,11.152 -42.037,3.68 -18.545,-8.3 -51.274,-44.701 -49.062,-50.993 2.21,-6.292 36.43,-2.046 62.76,6.913 23.412,7.944 31.949,22.302 31.686,32.131 2.47,1.425 5.3,3.028 8.516,4.794 5.808,3.161 12.623,7.445 19.729,12.167 3.421,2.677 6.958,5.43 10.546,8.231 2.13,1.74 4.048,3.796 5.948,5.891 -2.772,-14.264 -6.235,-28.146 -10.021,-41.684 -2.625,-3.037 -5.831,-6.747 -9.499,-10.993 -5.088,-5.835 -10.936,-12.796 -17.372,-19.969 -6.931,-6.456 -14.328,-13.35 -21.715,-20.233 -3.742,-3.403 -7.31,-7.039 -11.149,-10.217 -4.022,-2.957 -7.987,-5.875 -11.827,-8.686 -7.792,-5.39 -14.561,-11.507 -21.287,-14.9 -1.22,-0.648 -2.359,-1.254 -3.5,-1.861 -16.098,16.834 -42.863,16.801 -70.283,3.78 -30.876,-14.638 -84.583,-77.089 -80.639,-87.569 3.958,-10.498 61.367,-2.102 105.319,13.931 45.164,16.455 56.641,46.563 50.706,62.272 0.987,0.473 1.942,0.931 2.981,1.43 7.27,3.343 14.348,9.228 22.695,14.521 4.082,2.764 8.309,5.613 12.603,8.521 4.12,3.141 7.987,6.749 12.019,10.132 8.017,6.911 16.026,13.824 23.539,20.298 2.372,2.437 4.543,4.759 6.739,7.092 -5.098,-13.668 -10.621,-26.826 -16.512,-39.266 -8.841,-19.602 -19.137,-37.216 -28.482,-53.58 -10.577,-15.626 -18.758,-30.991 -28.046,-43.313 -8.918,-12.555 -16.296,-23.839 -23.092,-32.632 -1.368,-1.859 -2.636,-3.585 -3.88,-5.276 -26.679,7.859 -62.823,-18.456 -90.639,-58.744 -40.542,-58.728 -37.226,-121.605 -32.525,-128.324 4.702,-6.718 63.14,40.717 101.664,87.153 36.752,44.233 39.481,79.824 30.048,93.757 1.319,1.416 2.64,2.834 4.077,4.377 7.89,8.037 16.208,18.865 26.076,31.061 10.092,12.012 20.175,26.66 31.226,42.557 8.726,14.221 18.172,29.505 26.917,46.257 -0.242,-5.619 -0.457,-11.342 -0.179,-16.979 0.522,-9.23 1.036,-18.468 1.531,-27.126 0.149,-4.024 0.539,-7.848 0.952,-11.522 -11.667,-3.142 -24.977,-23.891 -17.363,-61 7.455,-36.44 24.71,-78.612 32.563,-76.712 7.822,1.91 24.458,65.059 21.249,92.136 -2.666,22.537 -11.972,39.688 -26.604,44.64 -0.292,4.139 -0.547,8.502 -0.501,13.031 -0.096,8.482 -0.194,17.537 -0.292,26.59 -0.028,9.026 1.231,17.751 1.707,26.049 0.32,4.129 0.639,8.124 0.93,11.904 0.796,3.85 1.553,7.495 2.239,10.859 0.407,1.974 0.788,3.815 1.152,5.582 4.661,11.609 8.973,23.666 12.984,36.076 0.636,2.085 1.184,4.237 1.794,6.343 0.144,-0.756 0.281,-1.473 0.426,-2.233 0.882,-3.878 1.231,-8.038 2.579,-11.76 2.91,-9.617 5.741,-19.109 8.612,-27.626 -9.441,-9.624 -15.069,-38.976 0.364,-71.148 16.053,-33.551 42.345,-60.618 49.5,-56.868 7.134,3.743 7.967,69.044 -1.707,94.53 -8.397,22.171 -22.434,36.763 -38.703,36.842 -2.321,8.372 -4.536,17.597 -6.83,26.887 -1.125,3.723 -1.173,7.475 -1.813,11.14 -0.504,3.663 -1.008,7.261 -1.483,10.751 -1.29,6.814 -1.57,13.552 -1.377,19.514 -0.013,3.73 -0.023,7.005 -0.033,9.821 1.715,9.005 3.25,18.086 4.377,27.288 1.413,9.511 2.322,19.108 3.055,28.732 0.588,1.819 1.047,3.553 1.094,5.111 0.105,0.777 0.201,1.484 0.301,2.23 2.538,-4.911 5.135,-9.914 8.239,-14.676 0.399,-0.683 0.842,-1.321 1.249,-1.999 -5.322,-11.584 -3.589,-37.181 15.29,-61.335 20.882,-26.737 49.567,-45.689 55.209,-40.949 5.613,4.732 -6.398,63.033 -20.009,83.838 -11.694,17.909 -26.864,28.14 -41.251,25.324 -0.145,0.279 -0.31,0.541 -0.453,0.821 -7.286,13.287 -13.171,27.75 -15.837,37.939 z m -575.955,22.932 c 60.703,113.911 70.678,283.551 143.527,293.532 26.768,3.667 32.936,-12.472 32.936,-12.472 0,0 -29.955,7.66 -53.893,-35.427 C 1172.427,916.889 1137.503,577.603 1028.73,458.856 919.958,340.109 769.275,342.103 769.275,342.103 l 46.905,130.225 c 161.185,82.684 205.085,141.458 283.569,288.738 z" />
		</defs>
		<clipPath
   id="SVGID_00000103980923704600996120000003277701876845627526_">
			<use
   xlink:href="#SVGID_1_"
   style="overflow:visible"
   id="use1" />
		</clipPath>
		<g
   clip-path="url(#SVGID_00000103980923704600996120000003277701876845627526_)"
   id="g3">
			
				<linearGradient
   id="SVGID_00000089541229809337037390000015991403708587753900_"
   gradientUnits="userSpaceOnUse"
   x1="1137.5908"
   y1="1245.1559"
   x2="1137.5908"
   y2="213.1537">
				<stop
   offset="0"
   style="stop-color:#0048AA"
   id="stop1" />
				<stop
   offset="1"
   style="stop-color:#1570D2"
   id="stop2" />
			</linearGradient>
			
				<rect
   x="140.76601"
   y="103.665"
   style="fill:url(#SVGID_00000089541229809337037390000015991403708587753900_)"
   width="1993.649"
   height="1076.485"
   id="rect2" />
			<rect
   x="140.76601"
   y="1164.869"
   style="fill:#fed800"
   width="1993.649"
   height="1076.485"
   id="rect3" />
		</g>
	</g>
</g></g></svg>
